<svg xmlns="http://www.w3.org/2000/svg" viewBox="0 0 800 480" fill="none">
  <defs>
    <linearGradient id="bg3" x1="0" y1="0" x2="800" y2="480" gradientUnits="userSpaceOnUse">
      <stop stop-color="#18181b"/>
      <stop offset="1" stop-color="#3f3f46"/>
    </linearGradient>
    <linearGradient id="card3" x1="0" y1="0" x2="1" y2="1">
      <stop stop-color="#27272a"/>
      <stop offset="1" stop-color="#18181b"/>
    </linearGradient>
  </defs>
  <rect width="800" height="480" rx="12" fill="url(#bg3)"/>
  <rect x="24" y="20" width="752" height="36" rx="8" fill="#27272a"/>
  <circle cx="48" cy="38" r="6" fill="#ef4444"/>
  <circle cx="72" cy="38" r="6" fill="#eab308"/>
  <circle cx="96" cy="38" r="6" fill="#22c55e"/>
  <rect x="48" y="80" width="140" height="22" rx="4" fill="#fafafa" fill-opacity="0.15"/>
  <rect x="580" y="78" width="160" height="28" rx="6" fill="#22d3ee" fill-opacity="0.2" stroke="#22d3ee" stroke-opacity="0.4"/>
  <g transform="translate(48 130)">
    <rect width="220" height="300" rx="10" fill="url(#card3)" stroke="#3f3f46"/>
    <rect x="20" y="20" width="180" height="140" rx="6" fill="#52525b"/>
    <rect x="20" y="176" width="140" height="10" rx="2" fill="#71717a"/>
    <rect x="20" y="196" width="100" height="10" rx="2" fill="#52525b"/>
    <rect x="20" y="230" width="90" height="28" rx="6" fill="#22d3ee" fill-opacity="0.5"/>
    <rect x="280" y="0" width="220" height="300" rx="10" fill="url(#card3)" stroke="#3f3f46"/>
    <rect x="300" y="20" width="180" height="140" rx="6" fill="#3f3f46"/>
    <rect x="300" y="176" width="140" height="10" rx="2" fill="#71717a"/>
    <rect x="300" y="196" width="100" height="10" rx="2" fill="#52525b"/>
    <rect x="300" y="230" width="90" height="28" rx="6" fill="#a78bfa" fill-opacity="0.45"/>
    <rect x="512" y="0" width="220" height="300" rx="10" fill="url(#card3)" stroke="#3f3f46"/>
    <rect x="532" y="20" width="180" height="140" rx="6" fill="#52525b"/>
    <rect x="532" y="176" width="140" height="10" rx="2" fill="#71717a"/>
    <rect x="532" y="196" width="100" height="10" rx="2" fill="#52525b"/>
    <rect x="532" y="230" width="90" height="28" rx="6" fill="#22d3ee" fill-opacity="0.35"/>
  </g>
</svg>
