<svg xmlns="http://www.w3.org/2000/svg" viewBox="0 0 800 480" fill="none">
  <defs>
    <linearGradient id="bg2" x1="0" y1="480" x2="800" y2="0" gradientUnits="userSpaceOnUse">
      <stop stop-color="#0c1222"/>
      <stop offset="1" stop-color="#134e4a"/>
    </linearGradient>
    <linearGradient id="hero2" x1="400" y1="120" x2="400" y2="360" gradientUnits="userSpaceOnUse">
      <stop stop-color="#14b8a6" stop-opacity="0.3"/>
      <stop offset="1" stop-color="#0d9488" stop-opacity="0.1"/>
    </linearGradient>
  </defs>
  <rect width="800" height="480" rx="12" fill="url(#bg2)"/>
  <rect x="24" y="20" width="752" height="36" rx="8" fill="#1e293b"/>
  <circle cx="48" cy="38" r="6" fill="#ef4444"/>
  <circle cx="72" cy="38" r="6" fill="#eab308"/>
  <circle cx="96" cy="38" r="6" fill="#22c55e"/>
  <rect x="48" y="88" width="320" height="48" rx="6" fill="#f8fafc" fill-opacity="0.08"/>
  <rect x="400" y="96" width="64" height="32" rx="6" fill="#2dd4bf" fill-opacity="0.35"/>
  <rect x="480" y="96" width="64" height="32" rx="6" fill="#f8fafc" fill-opacity="0.06"/>
  <rect x="560" y="96" width="64" height="32" rx="6" fill="#f8fafc" fill-opacity="0.06"/>
  <rect x="48" y="160" width="704" height="280" rx="10" fill="url(#hero2)" stroke="#2dd4bf" stroke-opacity="0.25" stroke-width="1"/>
  <rect x="120" y="220" width="280" height="36" rx="6" fill="#f8fafc" fill-opacity="0.9"/>
  <rect x="120" y="276" width="200" height="14" rx="3" fill="#f8fafc" fill-opacity="0.35"/>
  <rect x="120" y="302" width="160" height="14" rx="3" fill="#f8fafc" fill-opacity="0.2"/>
  <rect x="120" y="340" width="140" height="44" rx="8" fill="#2dd4bf"/>
  <rect x="480" y="200" width="220" height="160" rx="8" fill="#0f172a" stroke="#334155"/>
  <circle cx="590" cy="270" r="28" fill="#2dd4bf" fill-opacity="0.25"/>
  <path d="M520 340 L580 300 L640 320 L700 280" stroke="#5eead4" stroke-width="2" stroke-linecap="round" fill="none"/>
</svg>
