<svg xmlns="http://www.w3.org/2000/svg" viewBox="0 0 800 480" fill="none">
  <defs>
    <linearGradient id="bg1" x1="0" y1="0" x2="800" y2="480" gradientUnits="userSpaceOnUse">
      <stop stop-color="#0f172a"/>
      <stop offset="1" stop-color="#1e1b4b"/>
    </linearGradient>
    <linearGradient id="accent1" x1="0" y1="0" x2="400" y2="300" gradientUnits="userSpaceOnUse">
      <stop stop-color="#22d3ee" stop-opacity="0.35"/>
      <stop offset="1" stop-color="#7c3aed" stop-opacity="0.25"/>
    </linearGradient>
  </defs>
  <rect width="800" height="480" rx="12" fill="url(#bg1)"/>
  <rect x="24" y="20" width="752" height="36" rx="8" fill="#1e293b"/>
  <circle cx="48" cy="38" r="6" fill="#ef4444"/>
  <circle cx="72" cy="38" r="6" fill="#eab308"/>
  <circle cx="96" cy="38" r="6" fill="#22c55e"/>
  <rect x="24" y="72" width="200" height="384" rx="8" fill="#0f172a" stroke="#334155" stroke-width="1"/>
  <rect x="240" y="72" width="536" height="120" rx="8" fill="url(#accent1)" stroke="#334155" stroke-width="1"/>
  <rect x="240" y="208" width="260" height="248" rx="8" fill="#0f172a" stroke="#334155" stroke-width="1"/>
  <rect x="516" y="208" width="260" height="248" rx="8" fill="#0f172a" stroke="#334155" stroke-width="1"/>
  <rect x="264" y="100" width="120" height="8" rx="2" fill="#475569"/>
  <rect x="264" y="118" width="180" height="6" rx="2" fill="#334155"/>
  <rect x="264" y="240" width="200" height="12" rx="2" fill="#22d3ee" fill-opacity="0.4"/>
  <rect x="264" y="268" width="212" height="8" rx="2" fill="#334155"/>
  <rect x="264" y="288" width="180" height="8" rx="2" fill="#334155"/>
  <rect x="540" y="240" width="180" height="100" rx="4" fill="#1e293b"/>
  <path d="M560 320 L600 280 L640 300 L680 250 L720 270" stroke="#22d3ee" stroke-width="3" stroke-linecap="round" fill="none"/>
</svg>
